<?xml version="1.0" encoding="utf-8"?>
<!-- Generator: Adobe Illustrator 21.0.2, SVG Export Plug-In . SVG Version: 6.00 Build 0)  -->
<svg version="1.1" id="Layer_1" xmlns="http://www.w3.org/2000/svg" xmlns:xlink="http://www.w3.org/1999/xlink" x="0px" y="0px"
	 viewBox="0 0 100 100" style="enable-background:new 0 0 100 100;" xml:space="preserve">
<path d="M87,60c-2.4,0-4.6,1.1-6.1,2.8l-19.4-9.4c0.3-1.1,0.5-2.2,0.5-3.4c0-2.6-0.8-5-2.2-7l19.7-19.7C81.1,24.4,83,25,85,25
	c5.5,0,10-4.5,10-10c0-5.5-4.5-10-10-10S75,9.5,75,15c0,2,0.6,3.9,1.7,5.5L57,40.2c-2-1.4-4.4-2.2-7-2.2c-2.3,0-4.4,0.6-6.2,1.7
	L26.6,19.6c0.9-1.3,1.4-2.9,1.4-4.6c0-4.4-3.6-8-8-8s-8,3.6-8,8c0,4.4,3.6,8,8,8c1.3,0,2.5-0.3,3.5-0.8l17.3,20.1
	C39,44.4,38,47.1,38,50c0,2.6,0.8,5,2.2,7L20.5,76.7C18.9,75.6,17,75,15,75C9.5,75,5,79.5,5,85c0,5.5,4.5,10,10,10s10-4.5,10-10
	c0-2-0.6-3.9-1.7-5.5L43,59.8c1.5,1,3.1,1.7,5,2.1v13.4c-4.6,0.9-8,5-8,9.8c0,5.5,4.5,10,10,10s10-4.5,10-10c0-4.8-3.4-8.9-8-9.8
	V61.8c3.2-0.5,6-2.3,7.8-4.9l19.4,9.4c-0.1,0.5-0.2,1-0.2,1.6c0,4.4,3.6,8,8,8s8-3.6,8-8C95,63.6,91.4,60,87,60z M85,11
	c2.2,0,4,1.8,4,4c0,2.2-1.8,4-4,4s-4-1.8-4-4C81,12.8,82.8,11,85,11z M20,17c-1.1,0-2-0.9-2-2c0-1.1,0.9-2,2-2s2,0.9,2,2
	C22,16.1,21.1,17,20,17z M15,89c-2.2,0-4-1.8-4-4c0-2.2,1.8-4,4-4s4,1.8,4,4C19,87.2,17.2,89,15,89z M54,85c0,2.2-1.8,4-4,4
	s-4-1.8-4-4c0-2.2,1.8-4,4-4S54,82.8,54,85z M50,56c-3.3,0-6-2.7-6-6s2.7-6,6-6s6,2.7,6,6S53.3,56,50,56z M87,70c-1.1,0-2-0.9-2-2
	c0-1.1,0.9-2,2-2s2,0.9,2,2C89,69.1,88.1,70,87,70z"/>
</svg>
